<?xml version="1.0" encoding="utf-8"?>
<!-- Generator: Adobe Illustrator 16.0.0, SVG Export Plug-In . SVG Version: 6.00 Build 0)  -->
<!DOCTYPE svg PUBLIC "-//W3C//DTD SVG 1.1//EN" "http://www.w3.org/Graphics/SVG/1.1/DTD/svg11.dtd">
<svg version="1.1" id="Layer_1" xmlns="http://www.w3.org/2000/svg" xmlns:xlink="http://www.w3.org/1999/xlink" x="0px" y="0px"
	 width="960px" height="560px" viewBox="0 0 960 560" enable-background="new 0 0 960 560" xml:space="preserve">
<g>
	<path d="M644.318,203.232c0-96.186-77.98-174.156-174.161-174.156c-96.188,0-174.161,77.97-174.161,174.156
		c0,31.385,8.31,60.831,22.835,86.262l0.009-0.003c5.444,9.604,15.739,16.101,27.574,16.101c17.502,0,31.685-14.186,31.685-31.689
		c0-5.584-1.453-10.826-3.994-15.381l-0.029,0.015c-9.887-16.632-15.58-36.045-15.58-56.793c0-61.5,49.856-111.355,111.359-111.355
		c50.72,0,93.492,33.924,106.934,80.312H410.349l0,0c-17.224,0-31.177,13.962-31.177,31.183c0,17.217,13.953,31.183,31.177,31.183
		l0,0h201.477c0.349,0.009,0.69,0.051,1.04,0.051c16.677,0,30.26-13.095,31.123-29.557h0.312
		C644.31,203.45,644.318,203.341,644.318,203.232z"/>
	<circle cx="414.96" cy="332.662" r="32.457"/>
	<circle cx="490.305" cy="354.053" r="32.457"/>
	<circle cx="566.643" cy="331.73" r="32.457"/>
	<g>
		<path d="M665.514,406.997c-7.762,0-14.056,6.297-14.056,14.062c0,7.769,6.294,14.057,14.056,14.057
			c7.771,0,14.067-6.288,14.067-14.057C679.581,413.294,673.284,406.997,665.514,406.997z M665.348,432.068
			c-6.035,0-10.932-4.898-10.932-10.932c0-6.038,4.896-10.932,10.932-10.932c6.031,0,10.927,4.894,10.927,10.932
			C676.274,427.176,671.381,432.068,665.348,432.068z"/>
		<g>
			<path d="M660.608,428.674v-9.418c0-1.9,0.413-3.342,1.228-4.338c0.81-0.981,2.058-1.474,3.736-1.474
				c1.299,0,2.373,0.38,3.227,1.128c0.916,0.815,1.377,1.868,1.377,3.161c0,0.7-0.147,1.347-0.439,1.93
				c-0.296,0.597-0.72,1.05-1.277,1.346c1.312,0.502,1.965,1.498,1.965,2.984v4.64h-1.99l-0.012-4.254
				c-0.128-1.505-1.031-2.254-2.719-2.254h-2.199v-1.889h1.799c0.728,0,1.354-0.183,1.877-0.554
				c0.651-0.455,0.983-1.109,0.983-1.949c0-0.763-0.289-1.378-0.868-1.836c-0.502-0.382-1.087-0.575-1.757-0.575
				c-0.95,0-1.679,0.312-2.209,0.94c-0.466,0.557-0.704,1.218-0.704,1.979v10.433H660.608L660.608,428.674z"/>
		</g>
	</g>
	<path stroke="#FFFFFF" stroke-width="2.4266" stroke-miterlimit="10" d="M382.506,262.162"/>
	<g>
		<g>
			<path d="M294.919,488.424v-3.654h17.137v3.654h-6.731v25.494h-3.658v-25.494H294.919z"/>
		</g>
		<g>
			<path d="M321.217,499.522c0-3.787,0.942-6.906,2.808-9.354c1.492-1.91,3.492-3.352,5.996-4.323
				c1.896-0.71,3.715-1.075,5.445-1.075h2.789v3.654h-2.937c-2.956,0-5.414,0.958-7.377,2.865c-1.694,1.638-2.653,3.52-2.882,5.661
				h13.196v3.731h-13.196c0,2.274,0.796,4.366,2.373,6.273c1.808,2.199,4.127,3.31,6.957,3.31h3.866v3.653h-3.267
				c-3.492,0-6.588-1.255-9.294-3.759C322.71,507.399,321.217,503.854,321.217,499.522z"/>
		</g>
		<g>
			<path d="M383.858,513.918v-29.229h3.626v12.178h11.749v-12.259h3.737v29.31h-3.737V500.52h-11.747v13.398H383.858z"/>
		</g>
		<g>
			<path d="M414.458,513.572v-25.243c0-1.264,0.331-2.232,0.978-2.92c0.658-0.68,1.466-1.019,2.429-1.019
				c1.541,0,2.692,0.749,3.448,2.251l10.72,21.444v-23.373h3.988v26.511c0,0.855-0.281,1.5-0.849,1.927
				c-0.588,0.454-1.306,0.688-2.146,0.688c-0.828,0-1.585-0.219-2.286-0.648c-0.704-0.37-1.179-0.896-1.424-1.567l-10.874-21.931
				v23.881H414.458z"/>
		</g>
		<g>
			<path d="M444.518,498.619c0-3.983,1.593-7.411,4.79-10.29c3.06-2.734,6.48-4.104,10.285-4.104c3.895,0,7.357,1.143,10.403,3.423
				c3.702,2.729,5.553,6.516,5.553,11.355c0,3.723-1.411,7.114-4.229,10.166c-3.044,3.261-6.711,4.887-11.004,4.887
				c-4.229,0-7.855-1.342-10.881-4.019C446.155,507.086,444.518,503.288,444.518,498.619z M448.788,498.619
				c0,3.189,1.067,5.962,3.211,8.322c2.106,2.383,4.778,3.576,8.022,3.576c2.366,0,4.659-0.794,6.885-2.392
				c2.969-2.128,4.455-5.114,4.455-8.962c0-3.038-0.981-5.633-2.946-7.782c-2.161-2.36-4.985-3.535-8.479-3.535
				c-3.008,0-5.61,1.054-7.806,3.158C449.902,493.147,448.788,495.683,448.788,498.619z"/>
		</g>
		<g>
			<path d="M484.726,484.713h3.896v18.812c0,2.113,0.437,3.688,1.305,4.701c0.99,1.152,2.6,1.73,4.824,1.73h3.8v3.619h-4.809
				c-2.062,0-3.958-0.601-5.674-1.809c-2.23-1.566-3.343-3.801-3.343-6.712L484.726,484.713L484.726,484.713z"/>
		</g>
		<g>
			<path d="M505.093,498.619c0-3.983,1.596-7.411,4.796-10.29c3.05-2.734,6.481-4.104,10.279-4.104
				c3.894,0,7.366,1.143,10.408,3.423c3.7,2.729,5.551,6.516,5.551,11.355c0,3.723-1.418,7.114-4.232,10.166
				c-3.043,3.261-6.715,4.887-11.004,4.887c-4.225,0-7.853-1.342-10.882-4.019C506.734,507.086,505.093,503.288,505.093,498.619z
				 M509.367,498.619c0,3.189,1.071,5.962,3.214,8.322c2.104,2.383,4.777,3.576,8.023,3.576c2.365,0,4.659-0.794,6.885-2.392
				c2.969-2.128,4.455-5.114,4.455-8.962c0-3.038-0.988-5.633-2.953-7.782c-2.158-2.36-4.979-3.535-8.472-3.535
				c-3.005,0-5.612,1.054-7.811,3.158C510.484,493.147,509.367,495.683,509.367,498.619z"/>
		</g>
		<g>
			<path d="M544.781,498.965c0-4.814,1.857-8.588,5.576-11.317c3.042-2.28,6.45-3.423,10.218-3.423
				c4.435,0,8.413,1.716,11.937,5.147l-2.577,2.876c-1.605-1.34-2.958-2.317-4.064-2.934c-1.772-0.98-3.546-1.468-5.323-1.468
				c-3.547,0-6.419,1.208-8.623,3.62c-1.969,2.173-2.953,4.686-2.953,7.536c0,2.962,0.984,5.554,2.953,7.777
				c2.17,2.438,5.017,3.656,8.536,3.656c3.253,0,5.917-1.059,7.99-3.173c1.862-1.876,2.784-3.976,2.784-6.313h-10.378v-3.639h14.528
				v2.915c0,4.062-1.566,7.426-4.69,10.088c-2.93,2.489-6.344,3.738-10.242,3.738c-4.36,0-8.04-1.407-11.041-4.242
				C546.321,506.901,544.781,503.292,544.781,498.965z"/>
		</g>
		<g>
			<path d="M585.108,513.572v-28.864h4.063v28.864H585.108z"/>
		</g>
		<g>
			<path d="M598.364,499.318c0-3.75,1.021-6.837,3.062-9.26c1.619-1.891,3.801-3.321,6.524-4.286
				c2.068-0.711,4.043-1.064,5.924-1.064h3.046v3.616h-3.202c-3.216,0-5.896,0.946-8.028,2.834c-1.85,1.622-2.89,3.491-3.136,5.609
				h14.366v3.695h-14.366c0,2.253,0.859,4.321,2.581,6.215c1.969,2.184,4.488,3.278,7.571,3.278h4.214v3.616h-3.559
				c-3.801,0-7.18-1.239-10.12-3.716C599.992,507.122,598.364,503.615,598.364,499.318z"/>
		</g>
		<g>
			<path d="M625.046,509.956h10.426c1.392,0,2.478-0.249,3.259-0.742c0.801-0.472,1.287-1.269,1.468-2.396
				c0.025-0.109,0.04-0.221,0.04-0.341c0-0.109,0-0.188,0-0.242c0-0.896-0.354-1.726-1.07-2.474
				c-0.701-0.737-1.682-1.408-2.949-2.01c-1.742-0.817-3.474-1.655-5.189-2.512c-1.899-1.02-3.252-1.996-4.062-2.915
				c-1.099-1.271-1.65-2.759-1.65-4.46c0-2.242,0.818-4.038,2.453-5.389c1.443-1.181,3.103-1.769,4.986-1.769h10.142v3.616h-10.142
				c-1.129,0-2.001,0.313-2.619,0.943c-0.628,0.669-0.948,1.479-0.948,2.436c0,0.494,0.124,0.978,0.375,1.447
				c0.253,0.468,0.602,0.833,1.031,1.104c1.236,0.858,2.708,1.678,4.429,2.474c2.253,1.045,3.536,1.647,3.855,1.812
				c1.427,0.824,2.595,1.791,3.502,2.894c1.178,1.442,1.772,3.016,1.772,4.721c0,1.888-0.566,3.495-1.691,4.826
				c-1.455,1.725-3.676,2.588-6.659,2.588h-10.758V509.956z"/>
		</g>
		<path d="M372.091,492.237l2.42-2.843c0,0-6.639-8.563-19.743-2.582c0,0-13.356,10.123-1.984,22.49c0,0,9.412,10.17,20.732,0.287
			l-2.273-2.987c0,0-8.394,8.392-15.789,0.43c0,0-8.392-8.961,1.563-17.494C357.017,489.538,365.27,484.419,372.091,492.237z"/>
	</g>
	<g>
		<g>
			<path d="M314.301,432.915l38.168-0.226c-0.783-2.645-1.565-4.542-2.339-5.69c-1.757-2.763-4.555-5.189-8.384-7.275
				c-5.914-3.215-11.83-3.573-17.748-1.061c-5.366,2.241-9.628,6.279-12.793,12.095c-2.756,5.058-3.474,10.375-2.163,15.949
				c1.466,6.064,5.152,10.701,11.066,13.919c5.95,3.238,11.371,4.074,16.261,2.495c4.337-1.305,8.797-4.736,13.377-10.306
				l10.033,7.399c-3.448,6.334-9.236,10.829-17.357,13.488c-9.713,3.185-19.317,2.19-28.823-2.98
				c-7.98-4.347-13.397-11.041-16.244-20.078c-2.849-9.038-2.07-17.602,2.334-25.689c5.545-10.202,13.33-16.454,23.333-18.758
				c8.582-1.99,16.693-0.904,24.32,3.242c6.669,3.636,11.518,8.234,14.543,13.807c2.9,5.606,4.276,12.448,4.121,20.527
				l-51.749,0.346L314.301,432.915z"/>
		</g>
		<g>
			<path d="M373.947,406.449h11.464v7.882c1.646-2.692,3.758-4.839,6.335-6.44c3.067-1.872,6.647-2.807,10.735-2.807h3.729v11.783
				h-2.866c-6.222,0-10.865,2.675-13.933,8.02c-2.269,3.934-3.396,8.479-3.396,13.638v35.363h-12.069V406.449z"/>
		</g>
		<g>
			<path d="M478.901,439.606c0-9.547,3.625-17.633,10.873-24.262c6.885-6.227,14.771-9.344,23.651-9.344
				c9.014,0,16.925,2.847,23.718,8.539c7.607,6.45,11.416,14.896,11.416,25.333c0,8.646-2.695,16.353-8.084,23.121
				c-6.213,7.882-14.392,11.825-24.533,11.825c-10.923,0-19.868-3.336-26.851-10.013c-6.977-6.72-10.462-14.941-10.462-24.667
				L478.901,439.606z M491.745,439.338c0,6.407,1.583,11.715,4.759,15.929c3.989,5.329,9.925,8,17.802,8
				c6.479,0,11.531-1.84,15.156-5.512c4.083-4.118,6.12-10.441,6.12-18.958c0-6.358-2.037-11.513-6.12-15.455
				c-4.165-3.854-9.402-5.783-15.697-5.783c-7.066,0-12.645,2.396-16.72,7.194C493.514,428.877,491.745,433.735,491.745,439.338z"/>
		</g>
		<g>
			<path d="M557.708,474.016v-46.03c0-6.042,2.301-11.306,6.903-15.806c4.512-4.352,10.515-6.534,18.008-6.534
				c4.471,0,8.396,1.114,11.78,3.339c2.349,1.494,4.535,3.541,6.562,6.129c1.856-2.681,4.339-4.858,7.463-6.541
				c3.706-1.948,7.934-2.927,12.68-2.927c6.281,0,11.727,2.183,16.34,6.534c4.657,4.404,6.984,9.671,6.984,15.806v46.03h-12.269
				l-0.059-42.29c0-3.721-0.771-6.852-2.305-9.396c-2.158-3.315-5.357-4.974-9.59-4.974c-4.597,0-8.038,1.592-10.34,4.77
				c-1.76,2.41-2.632,5.609-2.632,9.601v42.29h-12.533l-0.071-41.471c0-4.54-1.059-8.204-3.17-11.003
				c-2.125-2.784-5.162-4.187-9.126-4.187c-4.869,0-8.266,1.729-10.199,5.18c-1.49,2.583-2.229,6.218-2.229,10.892v40.589H557.708
				L557.708,474.016z"/>
		</g>
		<path d="M468.599,428.537"/>
		<path d="M462.411,426.27l8.194-8.337c0,0-29.394-30.815-56.678,4.171c0,0-16.822,22.969,8.201,45.863
			c0,0,25.326,19.652,46.307-2.825l-7.719-7.778c0,0-13.712,15.273-32.23,0.289c0,0-13.758-13.977-1.412-32.933
			C427.072,424.72,443.607,407.051,462.411,426.27z"/>
	</g>
</g>
</svg>
